<?xml version="1.0" encoding="utf-8"?>
<svg version="1.1" xmlns:xlink="http://www.w3.org/1999/xlink" width="48px" height="34px" xmlns="http://www.w3.org/2000/svg">
  <defs>
    <pattern id="BGPattern" patternUnits="userSpaceOnUse" alignment="0 0" imageRepeat="None" />
    <mask fill="white" id="Clip93">
      <path d="M 24 18.545454545454543  L 24 9.272727272727272  L 15 9.272727272727272  L 15 18.545454545454543  L 24 18.545454545454543  Z M 12 24.727272727272727  L 27 24.727272727272727  L 27 27.818181818181817  L 12 27.818181818181817  L 12 24.727272727272727  Z M 12 6.18181818181818  L 27 6.18181818181818  L 27 21  L 12 21  L 12 6.18181818181818  Z M 30 24.727272727272727  L 42 24.727272727272727  L 42 27.818181818181817  L 30 27.818181818181817  L 30 24.727272727272727  Z M 30 18  L 42 18  L 42 21  L 30 21  L 30 18  Z M 30 13  L 42 13  L 42 16  L 30 16  L 30 13  Z M 30 6.18181818181818  L 42 6.18181818181818  L 42 9.272727272727272  L 30 9.272727272727272  L 30 6.18181818181818  Z M 5.5546875 30.450284090909093  C 5.8515625 30.144412878787875  6 29.782196969696965  6 29.363636363636363  L 6 6.18181818181818  L 3 6.18181818181818  L 3 29.363636363636363  C 3 29.782196969696965  3.1484375 30.144412878787875  3.4453125 30.450284090909093  C 3.7421875000000004 30.756155303030305  4.09375 30.909090909090907  4.5 30.909090909090907  C 4.90625 30.909090909090907  5.2578125 30.756155303030305  5.5546875 30.450284090909093  Z M 44.5546875 30.450284090909093  C 44.85156250000001 30.144412878787875  45.00000000000001 29.782196969696965  45 29.363636363636363  L 45 3  L 9 3  L 9 29.363636363636363  C 9 29.894886363636363  8.9140625 30.410037878787875  8.7421875 31  L 43.5 31  C 43.90625 30.909090909090907  44.2578125 30.756155303030305  44.5546875 30.450284090909093  Z M 6 0  L 48 0  L 48 29.363636363636363  C 48 30.651515151515152  47.5625 31.746212121212125  46.6875 32.64772727272727  C 45.8125 33.54924242424242  44.75 34  43.5 34  L 4.5 34  C 3.2500000000000004 34  2.1875 33.54924242424242  1.3125 32.64772727272727  C 0.43749999999999994 31.746212121212125  0 30.651515151515152  0 29.363636363636363  L 0 3.0909090909090917  L 6 3.0909090909090917  L 6 0  Z " fill-rule="evenodd" />
    </mask>
  </defs>
  <g transform="matrix(1 0 0 1 -37 -24 )">
    <path d="M 24 18.545454545454543  L 24 9.272727272727272  L 15 9.272727272727272  L 15 18.545454545454543  L 24 18.545454545454543  Z M 12 24.727272727272727  L 27 24.727272727272727  L 27 27.818181818181817  L 12 27.818181818181817  L 12 24.727272727272727  Z M 12 6.18181818181818  L 27 6.18181818181818  L 27 21  L 12 21  L 12 6.18181818181818  Z M 30 24.727272727272727  L 42 24.727272727272727  L 42 27.818181818181817  L 30 27.818181818181817  L 30 24.727272727272727  Z M 30 18  L 42 18  L 42 21  L 30 21  L 30 18  Z M 30 13  L 42 13  L 42 16  L 30 16  L 30 13  Z M 30 6.18181818181818  L 42 6.18181818181818  L 42 9.272727272727272  L 30 9.272727272727272  L 30 6.18181818181818  Z M 5.5546875 30.450284090909093  C 5.8515625 30.144412878787875  6 29.782196969696965  6 29.363636363636363  L 6 6.18181818181818  L 3 6.18181818181818  L 3 29.363636363636363  C 3 29.782196969696965  3.1484375 30.144412878787875  3.4453125 30.450284090909093  C 3.7421875000000004 30.756155303030305  4.09375 30.909090909090907  4.5 30.909090909090907  C 4.90625 30.909090909090907  5.2578125 30.756155303030305  5.5546875 30.450284090909093  Z M 44.5546875 30.450284090909093  C 44.85156250000001 30.144412878787875  45.00000000000001 29.782196969696965  45 29.363636363636363  L 45 3  L 9 3  L 9 29.363636363636363  C 9 29.894886363636363  8.9140625 30.410037878787875  8.7421875 31  L 43.5 31  C 43.90625 30.909090909090907  44.2578125 30.756155303030305  44.5546875 30.450284090909093  Z M 6 0  L 48 0  L 48 29.363636363636363  C 48 30.651515151515152  47.5625 31.746212121212125  46.6875 32.64772727272727  C 45.8125 33.54924242424242  44.75 34  43.5 34  L 4.5 34  C 3.2500000000000004 34  2.1875 33.54924242424242  1.3125 32.64772727272727  C 0.43749999999999994 31.746212121212125  0 30.651515151515152  0 29.363636363636363  L 0 3.0909090909090917  L 6 3.0909090909090917  L 6 0  Z " fill-rule="nonzero" fill="rgba(0, 0, 0, 1)" stroke="none" transform="matrix(1 0 0 1 37 24 )" class="fill" />
    <path d="M 24 18.545454545454543  L 24 9.272727272727272  L 15 9.272727272727272  L 15 18.545454545454543  L 24 18.545454545454543  Z " stroke-width="0" stroke-dasharray="0" stroke="rgba(255, 255, 255, 0)" fill="none" transform="matrix(1 0 0 1 37 24 )" class="stroke" mask="url(#Clip93)" />
    <path d="M 12 24.727272727272727  L 27 24.727272727272727  L 27 27.818181818181817  L 12 27.818181818181817  L 12 24.727272727272727  Z " stroke-width="0" stroke-dasharray="0" stroke="rgba(255, 255, 255, 0)" fill="none" transform="matrix(1 0 0 1 37 24 )" class="stroke" mask="url(#Clip93)" />
    <path d="M 12 6.18181818181818  L 27 6.18181818181818  L 27 21  L 12 21  L 12 6.18181818181818  Z " stroke-width="0" stroke-dasharray="0" stroke="rgba(255, 255, 255, 0)" fill="none" transform="matrix(1 0 0 1 37 24 )" class="stroke" mask="url(#Clip93)" />
    <path d="M 30 24.727272727272727  L 42 24.727272727272727  L 42 27.818181818181817  L 30 27.818181818181817  L 30 24.727272727272727  Z " stroke-width="0" stroke-dasharray="0" stroke="rgba(255, 255, 255, 0)" fill="none" transform="matrix(1 0 0 1 37 24 )" class="stroke" mask="url(#Clip93)" />
    <path d="M 30 18  L 42 18  L 42 21  L 30 21  L 30 18  Z " stroke-width="0" stroke-dasharray="0" stroke="rgba(255, 255, 255, 0)" fill="none" transform="matrix(1 0 0 1 37 24 )" class="stroke" mask="url(#Clip93)" />
    <path d="M 30 13  L 42 13  L 42 16  L 30 16  L 30 13  Z " stroke-width="0" stroke-dasharray="0" stroke="rgba(255, 255, 255, 0)" fill="none" transform="matrix(1 0 0 1 37 24 )" class="stroke" mask="url(#Clip93)" />
    <path d="M 30 6.18181818181818  L 42 6.18181818181818  L 42 9.272727272727272  L 30 9.272727272727272  L 30 6.18181818181818  Z " stroke-width="0" stroke-dasharray="0" stroke="rgba(255, 255, 255, 0)" fill="none" transform="matrix(1 0 0 1 37 24 )" class="stroke" mask="url(#Clip93)" />
    <path d="M 5.5546875 30.450284090909093  C 5.8515625 30.144412878787875  6 29.782196969696965  6 29.363636363636363  L 6 6.18181818181818  L 3 6.18181818181818  L 3 29.363636363636363  C 3 29.782196969696965  3.1484375 30.144412878787875  3.4453125 30.450284090909093  C 3.7421875000000004 30.756155303030305  4.09375 30.909090909090907  4.5 30.909090909090907  C 4.90625 30.909090909090907  5.2578125 30.756155303030305  5.5546875 30.450284090909093  Z " stroke-width="0" stroke-dasharray="0" stroke="rgba(255, 255, 255, 0)" fill="none" transform="matrix(1 0 0 1 37 24 )" class="stroke" mask="url(#Clip93)" />
    <path d="M 44.5546875 30.450284090909093  C 44.85156250000001 30.144412878787875  45.00000000000001 29.782196969696965  45 29.363636363636363  L 45 3  L 9 3  L 9 29.363636363636363  C 9 29.894886363636363  8.9140625 30.410037878787875  8.7421875 31  L 43.5 31  C 43.90625 30.909090909090907  44.2578125 30.756155303030305  44.5546875 30.450284090909093  Z " stroke-width="0" stroke-dasharray="0" stroke="rgba(255, 255, 255, 0)" fill="none" transform="matrix(1 0 0 1 37 24 )" class="stroke" mask="url(#Clip93)" />
    <path d="M 6 0  L 48 0  L 48 29.363636363636363  C 48 30.651515151515152  47.5625 31.746212121212125  46.6875 32.64772727272727  C 45.8125 33.54924242424242  44.75 34  43.5 34  L 4.5 34  C 3.2500000000000004 34  2.1875 33.54924242424242  1.3125 32.64772727272727  C 0.43749999999999994 31.746212121212125  0 30.651515151515152  0 29.363636363636363  L 0 3.0909090909090917  L 6 3.0909090909090917  L 6 0  Z " stroke-width="0" stroke-dasharray="0" stroke="rgba(255, 255, 255, 0)" fill="none" transform="matrix(1 0 0 1 37 24 )" class="stroke" mask="url(#Clip93)" />
  </g>
</svg>