<?xml version="1.0" encoding="utf-8"?>
<svg version="1.1" xmlns:xlink="http://www.w3.org/1999/xlink" width="47px" height="34px" xmlns="http://www.w3.org/2000/svg">
  <defs>
    <pattern id="BGPattern" patternUnits="userSpaceOnUse" alignment="0 0" imageRepeat="None" />
    <mask fill="white" id="Clip11">
      <path d="M 23.5 18.545454545454543  L 23.5 9.272727272727272  L 14.6875 9.272727272727272  L 14.6875 18.545454545454543  L 23.5 18.545454545454543  Z M 11.75 24.727272727272727  L 26.4375 24.727272727272727  L 26.4375 27.818181818181817  L 11.75 27.818181818181817  L 11.75 24.727272727272727  Z M 12 6.18181818181818  L 26 6.18181818181818  L 26 21  L 12 21  L 12 6.18181818181818  Z M 29.375 24.727272727272727  L 41.125 24.727272727272727  L 41.125 27.818181818181817  L 29.375 27.818181818181817  L 29.375 24.727272727272727  Z M 29.375 18  L 41.125 18  L 41.125 21  L 29.375 21  L 29.375 18  Z M 29.375 13  L 41.125 13  L 41.125 16  L 29.375 16  L 29.375 13  Z M 29.375 6.18181818181818  L 41.125 6.18181818181818  L 41.125 9.272727272727272  L 29.375 9.272727272727272  L 29.375 6.18181818181818  Z M 5.43896484375 30.450284090909093  C 5.729654947916667 30.144412878787875  5.875 29.782196969696965  6 29.363636363636363  L 6 6.18181818181818  L 3 6.18181818181818  L 3 29.363636363636363  C 2.9375 29.782196969696965  3.0828450520833335 30.144412878787875  3.37353515625 30.450284090909093  C 3.664225260416667 30.756155303030305  4.008463541666667 30.909090909090907  4.40625 30.909090909090907  C 4.804036458333334 30.909090909090907  5.148274739583334 30.756155303030305  5.43896484375 30.450284090909093  Z M 43.62646484375 30.450284090909093  C 43.91715494791667 30.144412878787875  44.06250000000001 29.782196969696965  44 29.363636363636363  L 44 3  L 9 3  L 9 29.363636363636363  C 8.8125 29.894886363636363  8.728352864583332 30.410037878787875  8.56005859375 31  L 42.59375 31  C 42.991536458333336 30.909090909090907  43.335774739583336 30.756155303030305  43.62646484375 30.450284090909093  Z M 5.875 0  L 47 0  L 47 29.363636363636363  C 47 30.651515151515152  46.571614583333336 31.746212121212125  45.71484375 32.64772727272727  C 44.85807291666667 33.54924242424242  43.817708333333336 34  42.59375 34  L 4.40625 34  C 3.182291666666667 34  2.1419270833333335 33.54924242424242  1.28515625 32.64772727272727  C 0.42838541666666663 31.746212121212125  0 30.651515151515152  0 29.363636363636363  L 0 3.0909090909090917  L 5.875 3.0909090909090917  L 5.875 0  Z " fill-rule="evenodd" />
    </mask>
  </defs>
  <g transform="matrix(1 0 0 1 -45 -24 )">
    <path d="M 23.5 18.545454545454543  L 23.5 9.272727272727272  L 14.6875 9.272727272727272  L 14.6875 18.545454545454543  L 23.5 18.545454545454543  Z M 11.75 24.727272727272727  L 26.4375 24.727272727272727  L 26.4375 27.818181818181817  L 11.75 27.818181818181817  L 11.75 24.727272727272727  Z M 12 6.18181818181818  L 26 6.18181818181818  L 26 21  L 12 21  L 12 6.18181818181818  Z M 29.375 24.727272727272727  L 41.125 24.727272727272727  L 41.125 27.818181818181817  L 29.375 27.818181818181817  L 29.375 24.727272727272727  Z M 29.375 18  L 41.125 18  L 41.125 21  L 29.375 21  L 29.375 18  Z M 29.375 13  L 41.125 13  L 41.125 16  L 29.375 16  L 29.375 13  Z M 29.375 6.18181818181818  L 41.125 6.18181818181818  L 41.125 9.272727272727272  L 29.375 9.272727272727272  L 29.375 6.18181818181818  Z M 5.43896484375 30.450284090909093  C 5.729654947916667 30.144412878787875  5.875 29.782196969696965  6 29.363636363636363  L 6 6.18181818181818  L 3 6.18181818181818  L 3 29.363636363636363  C 2.9375 29.782196969696965  3.0828450520833335 30.144412878787875  3.37353515625 30.450284090909093  C 3.664225260416667 30.756155303030305  4.008463541666667 30.909090909090907  4.40625 30.909090909090907  C 4.804036458333334 30.909090909090907  5.148274739583334 30.756155303030305  5.43896484375 30.450284090909093  Z M 43.62646484375 30.450284090909093  C 43.91715494791667 30.144412878787875  44.06250000000001 29.782196969696965  44 29.363636363636363  L 44 3  L 9 3  L 9 29.363636363636363  C 8.8125 29.894886363636363  8.728352864583332 30.410037878787875  8.56005859375 31  L 42.59375 31  C 42.991536458333336 30.909090909090907  43.335774739583336 30.756155303030305  43.62646484375 30.450284090909093  Z M 5.875 0  L 47 0  L 47 29.363636363636363  C 47 30.651515151515152  46.571614583333336 31.746212121212125  45.71484375 32.64772727272727  C 44.85807291666667 33.54924242424242  43.817708333333336 34  42.59375 34  L 4.40625 34  C 3.182291666666667 34  2.1419270833333335 33.54924242424242  1.28515625 32.64772727272727  C 0.42838541666666663 31.746212121212125  0 30.651515151515152  0 29.363636363636363  L 0 3.0909090909090917  L 5.875 3.0909090909090917  L 5.875 0  Z " fill-rule="nonzero" fill="rgba(0, 0, 0, 1)" stroke="none" transform="matrix(1 0 0 1 45 24 )" class="fill" />
    <path d="M 23.5 18.545454545454543  L 23.5 9.272727272727272  L 14.6875 9.272727272727272  L 14.6875 18.545454545454543  L 23.5 18.545454545454543  Z " stroke-width="0" stroke-dasharray="0" stroke="rgba(255, 255, 255, 0)" fill="none" transform="matrix(1 0 0 1 45 24 )" class="stroke" mask="url(#Clip11)" />
    <path d="M 11.75 24.727272727272727  L 26.4375 24.727272727272727  L 26.4375 27.818181818181817  L 11.75 27.818181818181817  L 11.75 24.727272727272727  Z " stroke-width="0" stroke-dasharray="0" stroke="rgba(255, 255, 255, 0)" fill="none" transform="matrix(1 0 0 1 45 24 )" class="stroke" mask="url(#Clip11)" />
    <path d="M 12 6.18181818181818  L 26 6.18181818181818  L 26 21  L 12 21  L 12 6.18181818181818  Z " stroke-width="0" stroke-dasharray="0" stroke="rgba(255, 255, 255, 0)" fill="none" transform="matrix(1 0 0 1 45 24 )" class="stroke" mask="url(#Clip11)" />
    <path d="M 29.375 24.727272727272727  L 41.125 24.727272727272727  L 41.125 27.818181818181817  L 29.375 27.818181818181817  L 29.375 24.727272727272727  Z " stroke-width="0" stroke-dasharray="0" stroke="rgba(255, 255, 255, 0)" fill="none" transform="matrix(1 0 0 1 45 24 )" class="stroke" mask="url(#Clip11)" />
    <path d="M 29.375 18  L 41.125 18  L 41.125 21  L 29.375 21  L 29.375 18  Z " stroke-width="0" stroke-dasharray="0" stroke="rgba(255, 255, 255, 0)" fill="none" transform="matrix(1 0 0 1 45 24 )" class="stroke" mask="url(#Clip11)" />
    <path d="M 29.375 13  L 41.125 13  L 41.125 16  L 29.375 16  L 29.375 13  Z " stroke-width="0" stroke-dasharray="0" stroke="rgba(255, 255, 255, 0)" fill="none" transform="matrix(1 0 0 1 45 24 )" class="stroke" mask="url(#Clip11)" />
    <path d="M 29.375 6.18181818181818  L 41.125 6.18181818181818  L 41.125 9.272727272727272  L 29.375 9.272727272727272  L 29.375 6.18181818181818  Z " stroke-width="0" stroke-dasharray="0" stroke="rgba(255, 255, 255, 0)" fill="none" transform="matrix(1 0 0 1 45 24 )" class="stroke" mask="url(#Clip11)" />
    <path d="M 5.43896484375 30.450284090909093  C 5.729654947916667 30.144412878787875  5.875 29.782196969696965  6 29.363636363636363  L 6 6.18181818181818  L 3 6.18181818181818  L 3 29.363636363636363  C 2.9375 29.782196969696965  3.0828450520833335 30.144412878787875  3.37353515625 30.450284090909093  C 3.664225260416667 30.756155303030305  4.008463541666667 30.909090909090907  4.40625 30.909090909090907  C 4.804036458333334 30.909090909090907  5.148274739583334 30.756155303030305  5.43896484375 30.450284090909093  Z " stroke-width="0" stroke-dasharray="0" stroke="rgba(255, 255, 255, 0)" fill="none" transform="matrix(1 0 0 1 45 24 )" class="stroke" mask="url(#Clip11)" />
    <path d="M 43.62646484375 30.450284090909093  C 43.91715494791667 30.144412878787875  44.06250000000001 29.782196969696965  44 29.363636363636363  L 44 3  L 9 3  L 9 29.363636363636363  C 8.8125 29.894886363636363  8.728352864583332 30.410037878787875  8.56005859375 31  L 42.59375 31  C 42.991536458333336 30.909090909090907  43.335774739583336 30.756155303030305  43.62646484375 30.450284090909093  Z " stroke-width="0" stroke-dasharray="0" stroke="rgba(255, 255, 255, 0)" fill="none" transform="matrix(1 0 0 1 45 24 )" class="stroke" mask="url(#Clip11)" />
    <path d="M 5.875 0  L 47 0  L 47 29.363636363636363  C 47 30.651515151515152  46.571614583333336 31.746212121212125  45.71484375 32.64772727272727  C 44.85807291666667 33.54924242424242  43.817708333333336 34  42.59375 34  L 4.40625 34  C 3.182291666666667 34  2.1419270833333335 33.54924242424242  1.28515625 32.64772727272727  C 0.42838541666666663 31.746212121212125  0 30.651515151515152  0 29.363636363636363  L 0 3.0909090909090917  L 5.875 3.0909090909090917  L 5.875 0  Z " stroke-width="0" stroke-dasharray="0" stroke="rgba(255, 255, 255, 0)" fill="none" transform="matrix(1 0 0 1 45 24 )" class="stroke" mask="url(#Clip11)" />
  </g>
</svg>