<?xml version="1.0" encoding="utf-8"?>
<svg version="1.1" xmlns:xlink="http://www.w3.org/1999/xlink" width="65px" height="43px" xmlns="http://www.w3.org/2000/svg">
  <defs>
    <pattern id="BGPattern" patternUnits="userSpaceOnUse" alignment="0 0" imageRepeat="None" />
    <mask fill="white" id="Clip8">
      <path d="M 32 23  L 32 12  L 21 12  L 21 23  L 32 23  Z M 16.25 31  L 36.5625 31  L 36.5625 35  L 16.25 35  L 16.25 31  Z M 17 8  L 36 8  L 36 27  L 17 27  L 17 8  Z M 40.625 31  L 56.875 31  L 56.875 35  L 40.625 35  L 40.625 31  Z M 40.625 23  L 56.875 23  L 56.875 27  L 40.625 27  L 40.625 23  Z M 40.625 16  L 56.875 16  L 56.875 20  L 40.625 20  L 40.625 16  Z M 40.625 8  L 56.875 8  L 56.875 12  L 40.625 12  L 40.625 8  Z M 7.52197265625 38.510653409090914  C 7.923990885416667 38.12381628787878  8.125 37.665719696969695  9 37.13636363636364  L 9 7.818181818181816  L 4 7.818181818181816  L 4 37.13636363636364  C 4.0625 37.665719696969695  4.263509114583334 38.12381628787878  4.66552734375 38.510653409090914  C 5.067545572916667 38.89749053030303  5.543619791666667 39.090909090909086  6.09375 39.090909090909086  C 6.643880208333334 39.090909090909086  7.119954427083334 38.89749053030303  7.52197265625 38.510653409090914  Z M 60.33447265625 38.510653409090914  C 60.73649088541668 38.12381628787878  60.93750000000001 37.665719696969695  61 37.13636363636364  L 61 4  L 13 4  L 13 37.13636363636364  C 12.1875 37.80823863636364  12.071126302083332 38.45975378787878  11.83837890625 39  L 58.90625 39  C 59.456380208333336 39.090909090909086  59.932454427083336 38.89749053030303  60.33447265625 38.510653409090914  Z M 8.125 0  L 65 0  L 65 37.13636363636364  C 65 38.765151515151516  64.40755208333334 40.14962121212122  63.22265625 41.28977272727273  C 62.03776041666667 42.42992424242424  60.598958333333336 43  58.90625 43  L 6.09375 43  C 4.401041666666667 43  2.9622395833333335 42.42992424242424  1.77734375 41.28977272727273  C 0.5924479166666666 40.14962121212122  0 38.765151515151516  0 37.13636363636364  L 0 3.9090909090909105  L 8.125 3.9090909090909105  L 8.125 0  Z " fill-rule="evenodd" />
    </mask>
  </defs>
  <g transform="matrix(1 0 0 1 -34 -30 )">
    <path d="M 32 23  L 32 12  L 21 12  L 21 23  L 32 23  Z M 16.25 31  L 36.5625 31  L 36.5625 35  L 16.25 35  L 16.25 31  Z M 17 8  L 36 8  L 36 27  L 17 27  L 17 8  Z M 40.625 31  L 56.875 31  L 56.875 35  L 40.625 35  L 40.625 31  Z M 40.625 23  L 56.875 23  L 56.875 27  L 40.625 27  L 40.625 23  Z M 40.625 16  L 56.875 16  L 56.875 20  L 40.625 20  L 40.625 16  Z M 40.625 8  L 56.875 8  L 56.875 12  L 40.625 12  L 40.625 8  Z M 7.52197265625 38.510653409090914  C 7.923990885416667 38.12381628787878  8.125 37.665719696969695  9 37.13636363636364  L 9 7.818181818181816  L 4 7.818181818181816  L 4 37.13636363636364  C 4.0625 37.665719696969695  4.263509114583334 38.12381628787878  4.66552734375 38.510653409090914  C 5.067545572916667 38.89749053030303  5.543619791666667 39.090909090909086  6.09375 39.090909090909086  C 6.643880208333334 39.090909090909086  7.119954427083334 38.89749053030303  7.52197265625 38.510653409090914  Z M 60.33447265625 38.510653409090914  C 60.73649088541668 38.12381628787878  60.93750000000001 37.665719696969695  61 37.13636363636364  L 61 4  L 13 4  L 13 37.13636363636364  C 12.1875 37.80823863636364  12.071126302083332 38.45975378787878  11.83837890625 39  L 58.90625 39  C 59.456380208333336 39.090909090909086  59.932454427083336 38.89749053030303  60.33447265625 38.510653409090914  Z M 8.125 0  L 65 0  L 65 37.13636363636364  C 65 38.765151515151516  64.40755208333334 40.14962121212122  63.22265625 41.28977272727273  C 62.03776041666667 42.42992424242424  60.598958333333336 43  58.90625 43  L 6.09375 43  C 4.401041666666667 43  2.9622395833333335 42.42992424242424  1.77734375 41.28977272727273  C 0.5924479166666666 40.14962121212122  0 38.765151515151516  0 37.13636363636364  L 0 3.9090909090909105  L 8.125 3.9090909090909105  L 8.125 0  Z " fill-rule="nonzero" fill="rgba(0, 0, 0, 1)" stroke="none" transform="matrix(1 0 0 1 34 30 )" class="fill" />
    <path d="M 32 23  L 32 12  L 21 12  L 21 23  L 32 23  Z " stroke-width="0" stroke-dasharray="0" stroke="rgba(255, 255, 255, 0)" fill="none" transform="matrix(1 0 0 1 34 30 )" class="stroke" mask="url(#Clip8)" />
    <path d="M 16.25 31  L 36.5625 31  L 36.5625 35  L 16.25 35  L 16.25 31  Z " stroke-width="0" stroke-dasharray="0" stroke="rgba(255, 255, 255, 0)" fill="none" transform="matrix(1 0 0 1 34 30 )" class="stroke" mask="url(#Clip8)" />
    <path d="M 17 8  L 36 8  L 36 27  L 17 27  L 17 8  Z " stroke-width="0" stroke-dasharray="0" stroke="rgba(255, 255, 255, 0)" fill="none" transform="matrix(1 0 0 1 34 30 )" class="stroke" mask="url(#Clip8)" />
    <path d="M 40.625 31  L 56.875 31  L 56.875 35  L 40.625 35  L 40.625 31  Z " stroke-width="0" stroke-dasharray="0" stroke="rgba(255, 255, 255, 0)" fill="none" transform="matrix(1 0 0 1 34 30 )" class="stroke" mask="url(#Clip8)" />
    <path d="M 40.625 23  L 56.875 23  L 56.875 27  L 40.625 27  L 40.625 23  Z " stroke-width="0" stroke-dasharray="0" stroke="rgba(255, 255, 255, 0)" fill="none" transform="matrix(1 0 0 1 34 30 )" class="stroke" mask="url(#Clip8)" />
    <path d="M 40.625 16  L 56.875 16  L 56.875 20  L 40.625 20  L 40.625 16  Z " stroke-width="0" stroke-dasharray="0" stroke="rgba(255, 255, 255, 0)" fill="none" transform="matrix(1 0 0 1 34 30 )" class="stroke" mask="url(#Clip8)" />
    <path d="M 40.625 8  L 56.875 8  L 56.875 12  L 40.625 12  L 40.625 8  Z " stroke-width="0" stroke-dasharray="0" stroke="rgba(255, 255, 255, 0)" fill="none" transform="matrix(1 0 0 1 34 30 )" class="stroke" mask="url(#Clip8)" />
    <path d="M 7.52197265625 38.510653409090914  C 7.923990885416667 38.12381628787878  8.125 37.665719696969695  9 37.13636363636364  L 9 7.818181818181816  L 4 7.818181818181816  L 4 37.13636363636364  C 4.0625 37.665719696969695  4.263509114583334 38.12381628787878  4.66552734375 38.510653409090914  C 5.067545572916667 38.89749053030303  5.543619791666667 39.090909090909086  6.09375 39.090909090909086  C 6.643880208333334 39.090909090909086  7.119954427083334 38.89749053030303  7.52197265625 38.510653409090914  Z " stroke-width="0" stroke-dasharray="0" stroke="rgba(255, 255, 255, 0)" fill="none" transform="matrix(1 0 0 1 34 30 )" class="stroke" mask="url(#Clip8)" />
    <path d="M 60.33447265625 38.510653409090914  C 60.73649088541668 38.12381628787878  60.93750000000001 37.665719696969695  61 37.13636363636364  L 61 4  L 13 4  L 13 37.13636363636364  C 12.1875 37.80823863636364  12.071126302083332 38.45975378787878  11.83837890625 39  L 58.90625 39  C 59.456380208333336 39.090909090909086  59.932454427083336 38.89749053030303  60.33447265625 38.510653409090914  Z " stroke-width="0" stroke-dasharray="0" stroke="rgba(255, 255, 255, 0)" fill="none" transform="matrix(1 0 0 1 34 30 )" class="stroke" mask="url(#Clip8)" />
    <path d="M 8.125 0  L 65 0  L 65 37.13636363636364  C 65 38.765151515151516  64.40755208333334 40.14962121212122  63.22265625 41.28977272727273  C 62.03776041666667 42.42992424242424  60.598958333333336 43  58.90625 43  L 6.09375 43  C 4.401041666666667 43  2.9622395833333335 42.42992424242424  1.77734375 41.28977272727273  C 0.5924479166666666 40.14962121212122  0 38.765151515151516  0 37.13636363636364  L 0 3.9090909090909105  L 8.125 3.9090909090909105  L 8.125 0  Z " stroke-width="0" stroke-dasharray="0" stroke="rgba(255, 255, 255, 0)" fill="none" transform="matrix(1 0 0 1 34 30 )" class="stroke" mask="url(#Clip8)" />
  </g>
</svg>