<?xml version="1.0" encoding="utf-8"?>
<svg version="1.1" xmlns:xlink="http://www.w3.org/1999/xlink" width="1396px" height="290px" xmlns="http://www.w3.org/2000/svg">
  <g transform="matrix(1 0 0 1 -22 -454 )">
    <path d="M 22 454  L 1418 454  L 1418 744  L 22 744  L 22 454  " fill-rule="nonzero" fill="rgba(204, 204, 204, 1)" stroke="none" class="fill" />
    <path d="M 42 474  L 1398 474  L 1398 724  L 42 724  L 42 474  " fill-rule="nonzero" fill="rgba(255, 255, 255, 1)" stroke="none" class="fill" />
    <path d="M 769.6700000000001 541  C 757.4900000000001 541  747.9200000000001 531.43  747.9200000000001 519.25  C 747.9200000000001 507.07  757.4900000000001 497.5  769.6700000000001 497.5  C 781.85 497.5  791.4200000000001 507.07  791.4200000000001 519.25  C 791.4200000000001 531.43  781.85 541  769.6700000000001 541  " fill-rule="nonzero" fill="rgba(204, 204, 204, 1)" stroke="none" class="fill" />
    <path d="M 50 717  L 50 587.75  L 385.25 529  L 854.6 687.7091690544413  L 1122.8 564.25  L 1391 687.7091690544413  L 1391 717  L 50 717  " fill-rule="nonzero" fill="rgba(22, 155, 213, 1)" stroke="none" class="fill" />
  </g>
</svg>