<?xml version="1.0" encoding="utf-8"?>
<svg version="1.1" xmlns:xlink="http://www.w3.org/1999/xlink" width="486px" height="290px" xmlns="http://www.w3.org/2000/svg">
  <g transform="matrix(1 0 0 1 -22 -454 )">
    <path d="M 22 454  L 508 454  L 508 744  L 22 744  L 22 454  " fill-rule="nonzero" fill="rgba(204, 204, 204, 1)" stroke="none" class="fill" />
    <path d="M 42 474  L 488 474  L 488 724  L 42 724  L 42 474  " fill-rule="nonzero" fill="rgba(255, 255, 255, 1)" stroke="none" class="fill" />
    <path d="M 296.47 541  C 284.29 541  274.72 531.43  274.72 519.25  C 274.72 507.07  284.29 497.5  296.47 497.5  C 308.65000000000003 497.5  318.22 507.07  318.22 519.25  C 318.22 531.43  308.65000000000003 541  296.47 541  " fill-rule="nonzero" fill="rgba(204, 204, 204, 1)" stroke="none" class="fill" />
    <path d="M 50 717  L 50 587.75  L 157.75 529  L 308.59999999999997 632.8641975308642  L 394.8 564.25  L 481 632.8641975308642  L 481 717  L 50 717  " fill-rule="nonzero" fill="rgba(22, 155, 213, 1)" stroke="none" class="fill" />
  </g>
</svg>