<?xml version="1.0" encoding="utf-8"?>
<svg version="1.1" xmlns:xlink="http://www.w3.org/1999/xlink" width="830px" height="386px" xmlns="http://www.w3.org/2000/svg">
  <g transform="matrix(1 0 0 1 -22 -34 )">
    <path d="M 22 34  L 852 34  L 852 420  L 22 420  L 22 34  " fill-rule="nonzero" fill="rgba(204, 204, 204, 1)" stroke="none" class="fill" />
    <path d="M 49 61  L 825 61  L 825 393  L 49 393  L 49 61  " fill-rule="nonzero" fill="rgba(255, 255, 255, 1)" stroke="none" class="fill" />
    <path d="M 482.55 149.8  C 466.338 149.8  453.6 137.062  453.6 120.85000000000001  C 453.6 104.638  466.338 91.9  482.55 91.9  C 498.762 91.9  511.5 104.638  511.5 120.85000000000001  C 511.5 137.062  498.762 149.8  482.55 149.8  " fill-rule="nonzero" fill="rgba(204, 204, 204, 1)" stroke="none" class="fill" />
    <path d="M 59 384  L 59 211.85  L 248.25 133.6  L 513.2 296.661686746988  L 664.6 180.54999999999998  L 816 296.661686746988  L 816 384  L 59 384  " fill-rule="nonzero" fill="rgba(22, 155, 213, 1)" stroke="none" class="fill" />
  </g>
</svg>